<svg width="20" height="12" viewBox="0 0 20 12" fill="none" xmlns="http://www.w3.org/2000/svg">
<mask id="path-1-inside-1" fill="white">
<path fill-rule="evenodd" clip-rule="evenodd" d="M0.764771 6.00003C2.30788 2.46821 5.83205 0 9.9327 0C14.0333 0 17.5575 2.46818 19.1006 5.99997C17.5575 9.53179 14.0333 12 9.93267 12C5.83204 12 2.30789 9.53183 0.764771 6.00003Z"/>
</mask>
<path d="M0.764771 6.00003L-0.609761 5.39948L-0.872153 6.00004L-0.609757 6.6006L0.764771 6.00003ZM19.1006 5.99997L20.4751 6.60052L20.7375 5.99996L20.4751 5.39941L19.1006 5.99997ZM2.1393 6.60059C3.45231 3.5954 6.44948 1.5 9.9327 1.5V-1.5C5.21462 -1.5 1.16344 1.34102 -0.609761 5.39948L2.1393 6.60059ZM9.9327 1.5C13.4159 1.5 16.413 3.59537 17.7261 6.60053L20.4751 5.39941C18.7019 1.34099 14.6507 -1.5 9.9327 -1.5V1.5ZM17.7261 5.39942C16.4131 8.40461 13.4159 10.5 9.93267 10.5V13.5C14.6507 13.5 18.7019 10.659 20.4751 6.60052L17.7261 5.39942ZM9.93267 10.5C6.44947 10.5 3.45232 8.40463 2.1393 5.39947L-0.609757 6.6006C1.16346 10.659 5.21462 13.5 9.93267 13.5V10.5Z" fill="#AAAAAA" mask="url(#path-1-inside-1)"/>
<circle cx="10" cy="6" r="2.25" stroke="#AAAAAA" stroke-width="1.5"/>
</svg>
