<svg width="20" height="9" viewBox="0 0 20 9" fill="none" xmlns="http://www.w3.org/2000/svg">
<path d="M17.8296 2.48202C18.184 2.05705 18.459 1.59731 18.6405 1.10959C18.799 0.683631 18.5818 0.210066 18.1554 0.051772C17.7291 -0.106522 17.2549 0.11035 17.0964 0.536307C16.7712 1.41027 15.9212 2.22269 14.7029 2.82406C13.386 3.47407 11.7158 3.83202 10 3.83202C8.28429 3.83202 6.61416 3.47407 5.29726 2.82406C4.07894 2.22275 3.22888 1.41033 2.90365 0.536418C2.74519 0.110515 2.27118 -0.106413 1.84467 0.051936C1.41832 0.21023 1.20116 0.683851 1.35963 1.10981C1.54109 1.59747 1.81613 2.05716 2.17055 2.48208L0.241255 4.4092C-0.0804185 4.7305 -0.0804185 5.2514 0.241255 5.57271C0.402092 5.73336 0.612844 5.81366 0.82365 5.81366C1.03446 5.81366 1.24526 5.73336 1.40604 5.57271L3.38665 3.5943C3.92252 3.97693 4.53668 4.31074 5.21186 4.58663L4.43971 7.23189C4.31236 7.6681 4.56323 8.12483 4.99992 8.25202C5.07686 8.27446 5.15446 8.2851 5.23081 8.2851C5.58754 8.2851 5.91627 8.05177 6.02116 7.69246L6.77952 5.09437C7.53239 5.28074 8.33291 5.40306 9.16375 5.45242V8.17727C9.16375 8.63163 9.53254 9 9.98743 9C10.4423 9 10.8111 8.63163 10.8111 8.17727V5.45401C11.6509 5.40564 12.4601 5.28266 13.2205 5.09442L13.979 7.69251C14.0838 8.05183 14.4126 8.28515 14.7693 8.28515C14.8457 8.28515 14.9232 8.27446 15.0002 8.25208C15.4369 8.12488 15.6877 7.66816 15.5604 7.23194L14.7882 4.58669C15.4633 4.3108 16.0775 3.97698 16.6134 3.59436L18.594 5.57276C18.7548 5.73341 18.9655 5.81371 19.1764 5.81371C19.3871 5.81371 19.5979 5.73336 19.7587 5.57276C20.0804 5.25146 20.0804 4.73055 19.7587 4.40925L17.8296 2.48202Z" fill="#AAAAAA"/>
</svg>
