<svg width="50" height="50" viewBox="0 0 50 50" fill="none" xmlns="http://www.w3.org/2000/svg">
<rect opacity="0.15" width="50" height="50" rx="12" fill="#0CAB6A"/>
<path d="M21 26V25H20H16.5C15.6716 25 15 25.6716 15 26.5V33.5C15 34.3284 15.6716 35 16.5 35H20H21V34V26Z" stroke="#0CAB6A" stroke-width="2"/>
<path d="M28 35H29V34V16.5C29 15.6716 28.3284 15 27.5 15H22.5C21.6716 15 21 15.6716 21 16.5V34V35H22H28Z" stroke="#0CAB6A" stroke-width="2"/>
<path d="M30 21H29V22V34V35H30H33.5C34.3284 35 35 34.3284 35 33.5V22.5C35 21.6716 34.3284 21 33.5 21H30Z" stroke="#0CAB6A" stroke-width="2"/>
</svg>
