<svg width="50" height="50" viewBox="0 0 50 50" fill="none" xmlns="http://www.w3.org/2000/svg">
<rect opacity="0.15" width="50" height="50" rx="12" fill="#0CAB6A"/>
<path d="M14.2227 26.5895C14.1888 26.6563 14.1544 26.7225 14.1189 26.7883C14.084 26.8541 14.048 26.9193 14.0116 26.9845C13.9751 27.0492 13.9381 27.1134 13.9005 27.1776C13.863 27.2413 13.825 27.3044 13.7859 27.3671C13.728 27.4605 13.6691 27.5523 13.6086 27.6426C13.5487 27.7329 13.4872 27.8211 13.4252 27.9077C13.3631 27.9938 13.2996 28.0784 13.2354 28.1608C13.1713 28.2433 13.1062 28.3231 13.0405 28.4009C12.6282 28.8883 12.2237 29.2379 11.85 29.4535C11.4878 29.6622 11.1573 29.7436 10.8758 29.7045C10.6048 29.6669 10.3801 29.5182 10.216 29.2661C10.0575 29.0235 9.95481 28.6853 9.91833 28.2574C9.89227 27.9515 9.90165 27.6191 9.94126 27.2726C9.98035 26.9323 10.0486 26.5764 10.1414 26.2153C10.2332 25.8589 10.3499 25.4951 10.487 25.1345C10.6236 24.776 10.7815 24.4185 10.9577 24.0709C11.0207 23.9462 11.0864 23.8231 11.1542 23.7009C11.2219 23.5788 11.2923 23.4583 11.3647 23.3398C11.4372 23.2208 11.5123 23.1039 11.5894 22.9886C11.6671 22.8733 11.7463 22.76 11.8286 22.6494C12.1419 22.2267 12.4599 21.8781 12.77 21.6083C13.0879 21.3317 13.4007 21.136 13.6915 21.0295C13.9923 20.9194 14.2722 20.9043 14.5109 20.9961C14.759 21.0916 14.9639 21.3024 15.1015 21.6432C15.163 21.7951 15.2083 21.9663 15.238 22.1541C15.2682 22.3446 15.2823 22.5523 15.2813 22.7736C15.2797 22.998 15.2625 23.236 15.2297 23.4844C15.1963 23.7359 15.1478 23.9974 15.0843 24.2656C15.065 24.3475 15.0441 24.43 15.0222 24.513C15.0003 24.5959 14.9769 24.6794 14.9519 24.7635C14.9268 24.8475 14.9008 24.9315 14.8737 25.016C14.8461 25.1006 14.8174 25.1857 14.7877 25.2707C14.7569 25.3579 14.7246 25.4455 14.6912 25.5327C14.6579 25.6204 14.623 25.708 14.587 25.7952C14.551 25.8829 14.5135 25.97 14.4749 26.0572C14.4364 26.1443 14.3968 26.231 14.3561 26.3171C14.3451 26.34 14.3342 26.363 14.3233 26.3859C14.3123 26.4089 14.3014 26.4319 14.2899 26.4543C14.279 26.4773 14.2675 26.4997 14.256 26.5227C14.2456 26.5441 14.2341 26.5665 14.2227 26.5895ZM10.4844 23.7098C10.2493 24.1743 10.0372 24.6518 9.85161 25.1309C9.66501 25.6141 9.50395 26.1026 9.37468 26.5843C9.24281 27.0743 9.14169 27.5612 9.0781 28.0309C9.01295 28.5131 8.98637 28.9812 9.00669 29.4196C9.03536 30.0406 9.15472 30.5473 9.35331 30.9283C9.56233 31.3296 9.85943 31.5916 10.2295 31.6959C10.6194 31.806 11.0875 31.7403 11.6118 31.4788C12.1601 31.2059 12.7616 30.7221 13.3819 30.0171C13.384 30.0145 13.3861 30.0124 13.3882 30.0098C13.3903 30.0072 13.3923 30.0046 13.3944 30.002C13.3965 29.9993 13.3986 29.9967 13.4007 29.9941C13.4028 29.9915 13.4048 29.9889 13.4069 29.9868L15.7374 27.3399L15.777 27.295L16.171 26.8473L17.8895 24.8939L16.0892 25.1115C16.1189 25.0207 16.147 24.9305 16.1747 24.8402C16.2018 24.7499 16.2284 24.6601 16.2534 24.5704C16.2784 24.4811 16.3024 24.3919 16.3253 24.3032C16.3482 24.2145 16.3701 24.1263 16.3905 24.0386C16.49 23.6185 16.5635 23.2109 16.6099 22.8211C16.6558 22.4375 16.6751 22.0738 16.6678 21.734C16.6605 21.4011 16.6271 21.0932 16.5677 20.8145C16.5093 20.5421 16.4259 20.2989 16.3175 20.0886C16.0876 19.6424 15.766 19.3877 15.3902 19.298C15.0337 19.2129 14.6271 19.2755 14.1982 19.4644C13.7885 19.645 13.3548 19.9419 12.9185 20.3412C12.4969 20.7268 12.0679 21.2127 11.6478 21.7914C11.5383 21.9423 11.4315 22.0962 11.3277 22.2528C11.2245 22.4083 11.1245 22.5664 11.0275 22.7271C10.9306 22.8868 10.8367 23.0491 10.746 23.213C10.6564 23.3774 10.5688 23.5428 10.4844 23.7098Z" fill="#0CAB6A"/>
<path d="M34.6771 26.4804C34.4952 26.8363 34.2914 27.187 34.0662 27.5298C33.8421 27.8716 33.5971 28.2056 33.3323 28.5287C33.0691 28.8501 32.7871 29.1601 32.4869 29.4566C32.1893 29.7509 31.8744 30.0311 31.544 30.2952C30.3227 31.2721 29.0196 31.926 27.7437 32.2778C26.5443 32.6086 25.3882 32.6676 24.3463 32.4902C23.3752 32.3247 22.5089 31.9547 21.7912 31.4104C21.1209 30.9021 20.5783 30.2404 20.1942 29.443C20.0341 29.1116 19.9075 28.7687 19.8116 28.4186C19.7172 28.0762 19.6521 27.7255 19.614 27.3707C19.5765 27.022 19.5645 26.6677 19.577 26.3107C19.589 25.959 19.625 25.6041 19.6828 25.2487C19.7005 25.1418 19.7198 25.0343 19.7412 24.9273C19.7626 24.8203 19.786 24.7138 19.8116 24.6069C19.8371 24.5004 19.8642 24.3939 19.8934 24.2875C19.9226 24.1815 19.9539 24.0751 19.9872 23.9691C20.0211 23.8606 20.0571 23.752 20.0946 23.644C20.1326 23.536 20.1723 23.428 20.214 23.3199C20.2557 23.2124 20.2994 23.1044 20.3453 22.9974C20.3912 22.8904 20.4386 22.7834 20.4886 22.677C20.5017 22.6488 20.5152 22.6206 20.5283 22.5924C20.5418 22.5643 20.5554 22.5361 20.5689 22.5079C20.5825 22.4797 20.5965 22.4515 20.6106 22.4234C20.6247 22.3952 20.6388 22.367 20.6528 22.3388C20.6951 22.2558 20.7383 22.1734 20.7831 22.0909C20.828 22.0085 20.8738 21.926 20.9208 21.8441C20.9677 21.7622 21.0161 21.6802 21.0657 21.5988C21.1152 21.5174 21.1663 21.436 21.2179 21.3556C21.2955 21.234 21.3763 21.113 21.4602 20.9929C21.5441 20.8724 21.6307 20.7529 21.7203 20.6344C21.81 20.5154 21.9033 20.397 21.9992 20.2795C22.0956 20.1616 22.1946 20.0447 22.2973 19.9288C22.9546 19.1836 23.6854 18.5391 24.4589 18.0063C25.2663 17.45 26.1331 17.0064 27.0197 16.698C27.9595 16.3713 28.9326 16.1933 29.8839 16.1996C30.9034 16.2064 31.9047 16.425 32.8064 16.9036C33.5148 17.2793 34.109 17.7866 34.5765 18.4045C35.0659 19.0516 35.411 19.8125 35.5997 20.6563C35.7951 21.5294 35.8202 22.4787 35.67 23.4629C35.5173 24.4659 35.1848 25.4872 34.6771 26.4804ZM16.3428 24.5098L18.1754 24.2384C18.1452 24.3365 18.116 24.4352 18.0884 24.5338C18.0602 24.6324 18.0336 24.7316 18.0081 24.8302C17.9826 24.9294 17.9581 25.0285 17.9346 25.1282C17.9112 25.2279 17.8893 25.3275 17.8684 25.4272C17.7663 25.9126 17.6928 26.401 17.6495 26.8869C17.6057 27.3827 17.5927 27.879 17.6146 28.3716C17.6365 28.8768 17.6943 29.3804 17.7913 29.8787C17.8914 30.3923 18.0336 30.9021 18.2223 31.4031C18.6649 32.5768 19.3268 33.6017 20.1801 34.444C21.1188 35.3714 22.2963 36.0843 23.664 36.5195C25.1797 37.0017 26.9222 37.141 28.7898 36.8457C30.844 36.5205 33.0024 35.6772 35.0628 34.2415C35.6294 33.846 36.1699 33.4186 36.6812 32.9625C37.1993 32.5006 37.6856 32.0106 38.1376 31.4976C38.5936 30.9799 39.0127 30.4403 39.3937 29.8829C39.7763 29.323 40.1188 28.7479 40.4195 28.1613C41.2571 26.5273 41.7554 24.8438 41.9108 23.2036C42.0619 21.6119 41.8857 20.1052 41.4072 18.7552C40.9543 17.4766 40.2407 16.3666 39.3009 15.4674C38.4263 14.6303 37.3698 13.99 36.1637 13.5673C34.674 13.0449 33.0972 12.9066 31.5534 13.0574C30.1533 13.1942 28.7637 13.5704 27.456 14.1241C26.2477 14.6361 25.0885 15.3088 24.0247 16.1067C23.0198 16.8608 22.0784 17.7427 21.2345 18.7379C21.2319 18.7411 21.2288 18.7447 21.2262 18.7479C21.2236 18.751 21.2205 18.7546 21.2179 18.7583C21.2152 18.7619 21.2121 18.7651 21.2095 18.7682C21.2064 18.7713 21.2038 18.775 21.2007 18.7781L18.4413 22.0335L18.399 22.0831L17.9878 22.5684L16.3428 24.5098Z" fill="#0CAB6A"/>
<path d="M12.6011 24.9868C12.5818 25.0249 12.5609 25.0604 12.539 25.0932C12.5171 25.1261 12.4942 25.1559 12.4708 25.1814C12.4478 25.207 12.4244 25.2284 12.4014 25.2451C12.3785 25.2613 12.3561 25.2728 12.3352 25.278C12.3071 25.2853 12.2836 25.2811 12.2659 25.267C12.2482 25.2529 12.2357 25.23 12.2289 25.1987C12.2221 25.1679 12.2206 25.1292 12.2258 25.0849C12.2305 25.0405 12.2414 24.991 12.2586 24.9367C12.2628 24.9231 12.2675 24.9095 12.2727 24.896C12.2774 24.8824 12.2826 24.8694 12.2883 24.8558C12.2935 24.8427 12.2993 24.8297 12.3055 24.8166C12.3113 24.8036 12.3175 24.7911 12.3238 24.7786C12.3425 24.7415 12.3629 24.7065 12.3842 24.6747C12.4056 24.6423 12.428 24.6131 12.4504 24.5881C12.4734 24.5625 12.4963 24.5411 12.5187 24.5239C12.5411 24.5072 12.5635 24.4952 12.5849 24.4889C12.6131 24.4806 12.6365 24.4837 12.6553 24.4962C12.6735 24.5087 12.6871 24.5312 12.6949 24.5615C12.7027 24.5917 12.7043 24.6298 12.7001 24.6747C12.6959 24.7191 12.6855 24.7702 12.6683 24.825C12.6641 24.8391 12.6594 24.8527 12.6542 24.8667C12.649 24.8803 12.6438 24.8944 12.6386 24.908C12.6329 24.9215 12.6271 24.9351 12.6214 24.9482C12.6141 24.9607 12.6073 24.9737 12.6011 24.9868ZM11.9542 24.6763C11.9328 24.7185 11.912 24.7613 11.8922 24.8046C11.8724 24.848 11.8531 24.8923 11.8343 24.9367C11.8161 24.981 11.7984 25.0264 11.7812 25.0718C11.7645 25.1172 11.7483 25.1632 11.7337 25.2096C11.7165 25.2628 11.7009 25.3156 11.6868 25.3677C11.6728 25.4199 11.6608 25.4711 11.6503 25.5212C11.6399 25.5713 11.6311 25.6208 11.6243 25.6683C11.6175 25.7163 11.6123 25.7628 11.6086 25.8082C11.6076 25.8139 11.6066 25.8197 11.6055 25.8249C11.6045 25.8301 11.6039 25.8359 11.6034 25.8405C11.6029 25.8458 11.6029 25.8505 11.6029 25.8557C11.6029 25.8604 11.6029 25.8651 11.6034 25.8693L11.605 25.888C11.6045 25.91 11.6045 25.9319 11.605 25.9527C11.6055 25.9736 11.6066 25.9945 11.6081 26.0143C11.6097 26.0342 11.6118 26.0535 11.6144 26.0728C11.617 26.0916 11.6201 26.1098 11.6232 26.1276L11.7009 27.1275C11.7019 27.1374 11.7035 27.1457 11.7061 27.153C11.7087 27.1603 11.7118 27.1666 11.7155 27.1713C11.7197 27.176 11.7244 27.1797 11.7296 27.1817C11.7348 27.1838 11.741 27.1844 11.7473 27.1833H11.7483C11.7551 27.1823 11.7619 27.1797 11.7692 27.1755C11.7765 27.1713 11.7843 27.1656 11.7916 27.1588C11.7994 27.152 11.8072 27.1436 11.815 27.1343C11.8229 27.1249 11.8307 27.1144 11.838 27.1024L12.6485 25.8552C12.6615 25.8369 12.6746 25.8181 12.6876 25.7993C12.7006 25.7805 12.7131 25.7612 12.7262 25.7414C12.7387 25.7221 12.7512 25.7023 12.7637 25.6819C12.7762 25.6621 12.7882 25.6417 12.8002 25.6208L12.8236 25.5848C12.8257 25.5817 12.8278 25.5786 12.8294 25.5754C12.8314 25.5723 12.833 25.5687 12.8351 25.5655C12.8372 25.5624 12.8387 25.5587 12.8408 25.5556C12.8429 25.552 12.8445 25.5488 12.846 25.5452C12.8471 25.5426 12.8486 25.54 12.8497 25.5379C12.8507 25.5358 12.8523 25.5326 12.8533 25.5306C12.8544 25.528 12.8554 25.5253 12.857 25.5233C12.858 25.5206 12.8591 25.518 12.8601 25.5154C12.8648 25.5071 12.8695 25.4987 12.8737 25.4899C12.8778 25.481 12.8825 25.4726 12.8872 25.4643C12.8919 25.4559 12.8961 25.4471 12.9008 25.4387C12.9055 25.4304 12.9096 25.4215 12.9138 25.4126C12.9378 25.3657 12.9607 25.3176 12.9826 25.2696C13.0045 25.2216 13.0253 25.1731 13.0452 25.124C13.065 25.0755 13.0837 25.0264 13.1009 24.9774C13.1181 24.9283 13.1343 24.8798 13.1494 24.8313C13.2093 24.635 13.2453 24.4555 13.2578 24.2984C13.2708 24.1429 13.2609 24.0104 13.2312 23.9065C13.202 23.8042 13.1525 23.7301 13.0858 23.6905C13.0196 23.6513 12.9362 23.6456 12.8377 23.6785C12.7647 23.703 12.6881 23.7468 12.611 23.8068C12.5338 23.8663 12.4562 23.9415 12.3795 24.0292C12.3029 24.1163 12.2279 24.216 12.1559 24.325C12.0856 24.4341 12.0173 24.5521 11.9542 24.6763Z" fill="#0CAB6A"/>
<path d="M26.5815 23.2902C26.5439 23.3638 26.4981 23.4337 26.4454 23.4974C26.3928 23.561 26.3339 23.619 26.2708 23.6691C26.2078 23.7186 26.1405 23.7604 26.0717 23.7917C26.0029 23.823 25.932 23.8439 25.8617 23.8528C25.772 23.8642 25.6912 23.8554 25.6219 23.8287C25.5531 23.8027 25.4952 23.7593 25.4514 23.703C25.4077 23.6466 25.378 23.5772 25.3639 23.4974C25.3498 23.418 25.3519 23.3283 25.3722 23.2323C25.3764 23.2114 25.3816 23.1905 25.3879 23.1696C25.3936 23.1488 25.4004 23.1284 25.4077 23.108C25.415 23.0877 25.4228 23.0673 25.4316 23.0475C25.4405 23.0277 25.4499 23.0078 25.4598 22.988C25.4958 22.9181 25.539 22.8513 25.5891 22.7897C25.6386 22.7281 25.6949 22.6718 25.7548 22.6227C25.8147 22.5731 25.8794 22.5314 25.9461 22.4985C26.0128 22.4656 26.0827 22.4421 26.152 22.4296C26.2416 22.4145 26.3235 22.4192 26.3949 22.4416C26.4668 22.4641 26.5278 22.5037 26.5752 22.5585C26.6232 22.6133 26.6571 22.6827 26.6743 22.7631C26.6915 22.844 26.6915 22.9369 26.6722 23.0371C26.668 23.059 26.6628 23.0804 26.6571 23.1018C26.6513 23.1232 26.6445 23.1446 26.6367 23.166C26.6294 23.1874 26.6211 23.2082 26.6122 23.2291C26.6013 23.249 26.5919 23.2698 26.5815 23.2902ZM24.152 22.8972C24.1192 22.9614 24.0889 23.0261 24.0603 23.0913C24.0316 23.1571 24.005 23.2234 23.9805 23.2902C23.956 23.357 23.9336 23.4248 23.9133 23.4927C23.893 23.561 23.8752 23.6294 23.8596 23.6988C23.8388 23.7922 23.8226 23.8846 23.8111 23.9759C23.7997 24.0672 23.7929 24.158 23.7913 24.2462C23.7898 24.335 23.7924 24.4221 23.8007 24.5072C23.8085 24.5922 23.8221 24.6757 23.8398 24.7561C23.8393 24.7665 23.8393 24.7765 23.8403 24.7864C23.8408 24.7963 23.8424 24.8057 23.844 24.8151C23.8455 24.8245 23.8481 24.8333 23.8507 24.8422C23.8534 24.8511 23.857 24.8594 23.8606 24.8673L23.8773 24.9017C23.8898 24.9419 23.9034 24.981 23.9185 25.0191C23.9336 25.0572 23.9498 25.0948 23.967 25.1313C23.9847 25.1679 24.0035 25.2033 24.0233 25.2378C24.0436 25.2722 24.065 25.3061 24.0879 25.3385L24.9995 27.236C25.0089 27.2553 25.0199 27.2725 25.0334 27.2872C25.0465 27.3018 25.0616 27.3148 25.0782 27.3247C25.0949 27.3352 25.1126 27.3425 25.1319 27.3482C25.1512 27.3534 25.1715 27.356 25.1929 27.356L25.196 27.3555C25.2179 27.3545 25.2398 27.3513 25.2617 27.3451C25.2836 27.3388 25.3055 27.3299 25.3269 27.3185C25.3482 27.307 25.3686 27.2934 25.3884 27.2772C25.4082 27.2611 25.4269 27.2428 25.4442 27.2224L27.3638 24.9612C27.3962 24.9278 27.4285 24.8934 27.4598 24.8589C27.4915 24.8239 27.5223 24.789 27.5525 24.753C27.5828 24.717 27.613 24.6804 27.6422 24.6434C27.6714 24.6063 27.7 24.5688 27.7277 24.5307L27.7845 24.4628C27.7907 24.4555 27.797 24.4482 27.8027 24.4409C27.8085 24.4336 27.8142 24.4258 27.8189 24.4179C27.8241 24.4101 27.8288 24.4023 27.8335 24.3944C27.8382 24.3866 27.8423 24.3783 27.8465 24.3704C27.8481 24.3673 27.8496 24.3642 27.8512 24.361C27.8528 24.3579 27.8543 24.3548 27.8559 24.3517C27.8575 24.3485 27.859 24.3454 27.8601 24.3423C27.8616 24.3391 27.8627 24.336 27.8642 24.3329C27.882 24.3052 27.8997 24.2776 27.9169 24.2494C27.9341 24.2212 27.9508 24.193 27.9669 24.1648C27.9831 24.1366 27.9992 24.1079 28.0149 24.0792C28.0305 24.0505 28.0456 24.0218 28.0602 23.9931C28.0993 23.9164 28.1358 23.8387 28.1686 23.7604C28.202 23.6821 28.2322 23.6038 28.2588 23.525C28.2859 23.4462 28.3099 23.3674 28.3302 23.2886C28.3505 23.2098 28.3677 23.131 28.3818 23.0533C28.447 22.6874 28.4355 22.3529 28.3604 22.0638C28.2864 21.7783 28.1504 21.5383 27.9659 21.3535C27.785 21.1724 27.5577 21.0456 27.2966 20.9825C27.0407 20.9204 26.7524 20.9193 26.4418 20.9872C26.2036 21.0394 25.969 21.1286 25.7444 21.2476C25.5223 21.365 25.3097 21.5117 25.1121 21.6802C24.9161 21.8472 24.7342 22.0367 24.5721 22.2417C24.4121 22.4458 24.2698 22.666 24.152 22.8972Z" fill="#0CAB6A"/>
</svg>
