<svg width="171" height="54" viewBox="0 0 171 54" fill="none" xmlns="http://www.w3.org/2000/svg">
<path d="M0 5.45842H13.0628V37.0157H18.2043V5.45842H31.8168V0.138397H0V5.45842Z" fill="url(#paint0_linear_6_290)"/>
<path d="M66.8034 34.205L57.2298 17.9682L56.6124 16.9195C56.6462 16.898 56.68 16.8765 56.7138 16.8549C56.7291 16.8457 56.7445 16.8365 56.7598 16.8242C56.852 16.7627 56.9441 16.7012 57.0332 16.6366C57.0393 16.6335 57.0455 16.6305 57.0516 16.6274C57.1499 16.5597 57.2451 16.4921 57.3403 16.4183C57.543 16.2707 57.7458 16.1169 57.9423 15.9601C57.9945 15.917 58.0498 15.874 58.1051 15.8309C58.1819 15.7694 58.2556 15.7079 58.3293 15.6433C58.4338 15.5542 58.5382 15.465 58.6426 15.3758C58.6518 15.3666 58.661 15.3573 58.6703 15.3481C58.7501 15.2774 58.8269 15.2066 58.9068 15.1328C59.1402 14.9176 59.3705 14.6962 59.5917 14.4686C60.3258 13.7183 61.5175 12.522 62.2515 10.7692C64.2756 5.92274 60.4118 0.181433 55.1688 0.0276753C55.132 0.0276753 55.1013 0.0245972 55.0767 0.0245972H35.2783V37.0126H40.4229V19.7856H47.0511C47.1739 19.7856 47.2968 19.7856 47.4196 19.7825C47.4841 19.7794 47.5456 19.7794 47.607 19.7763C47.7084 19.7733 47.8097 19.7702 47.908 19.764C47.9326 19.764 47.9571 19.761 47.9817 19.761C48.1199 19.7548 48.2581 19.7456 48.3964 19.7333C48.4025 19.7333 48.4056 19.7333 48.4086 19.7333C48.5591 19.721 48.7096 19.7087 48.8571 19.6933C48.9799 19.681 49.1028 19.6656 49.2256 19.6503C49.2748 19.6441 49.3239 19.638 49.3761 19.6318C49.4898 19.6164 49.6065 19.6011 49.7201 19.5826C49.7662 19.5765 49.8154 19.5672 49.8614 19.5611C49.9505 19.5488 50.0365 19.5334 50.1256 19.518C50.4266 19.4627 50.918 19.3581 51.2159 19.2874C51.2927 19.2689 51.3695 19.2505 51.4463 19.229C51.477 19.2228 51.5077 19.2136 51.5384 19.2044C51.6306 19.1828 51.7227 19.1552 51.8148 19.1275C51.8363 19.1213 51.8578 19.1152 51.8793 19.109L52.1619 19.5857L62.4389 37.0157H65.3045H68.465H72.0985L83.4105 15.877L80.032 9.49915L66.8034 34.205ZM55.9705 10.6831C54.8341 11.8455 53.5195 12.7588 52.0943 13.3954C50.5218 14.0996 48.811 14.4686 47.048 14.4686H40.4199V5.34462H53.713C56.4588 5.34462 57.93 8.66579 56.0166 10.637C56.0012 10.6523 55.9858 10.6677 55.9705 10.6831Z" fill="url(#paint1_linear_6_290)"/>
<path d="M85.109 0L85.106 0.00307816L81.712 6.34712L85.109 12.6943L98.1227 37.0157H104.92L88.5091 6.34712L85.109 0Z" fill="url(#paint2_linear_6_290)"/>
<path d="M168.658 21.2248C166.898 18.0481 163.587 15.9048 159.794 15.9048H149.569C149.277 15.8802 148.982 15.8648 148.681 15.8648C148.506 15.8648 148.334 15.8709 148.162 15.8802C145.607 15.6188 143.604 13.3831 143.604 10.6709C143.604 7.78328 145.874 5.43693 148.666 5.43693H169.217V0.110748C169.131 0.110748 169.045 0.11382 168.956 0.116895H148.663C144.867 0.116895 141.556 2.26029 139.799 5.43693C138.945 6.98066 138.456 8.76733 138.456 10.6709C138.456 12.5744 138.942 14.3641 139.799 15.9048C140.226 16.6766 140.748 17.3901 141.344 18.0235C143.199 19.9978 145.791 21.2248 148.663 21.2248H159.791C162.583 21.2248 164.852 23.5742 164.852 26.4587C164.852 29.3463 162.583 31.6926 159.791 31.6926H139.381C139.298 31.6926 139.218 31.6834 139.135 31.6803L143.647 37.0034C143.73 37.0065 143.81 37.0127 143.893 37.0127H159.794C163.59 37.0127 166.901 34.8693 168.658 31.6926C169.512 30.1489 170 28.3622 170 26.4587C170 24.5552 169.515 22.7685 168.658 21.2248Z" fill="url(#paint3_linear_6_290)"/>
<path d="M130.981 31.5696C131.269 31.2713 131.549 30.9607 131.816 30.6409C134.525 27.4089 136.162 23.1898 136.162 18.5771C136.162 8.39212 128.18 0.138397 118.333 0.138397C108.486 0.138397 100.5 8.39212 100.5 18.5771C100.5 28.762 108.483 37.0157 118.333 37.0157C118.366 37.0157 118.4 37.0157 118.434 37.0157H127.086H127.227H128.238H139.593L135.139 31.5696H130.981ZM121.533 31.2713C120.51 31.5481 119.438 31.6957 118.333 31.6957C111.336 31.6957 105.645 25.8098 105.645 18.5771C105.645 11.3412 111.336 5.45842 118.333 5.45842C125.326 5.45842 131.018 11.3412 131.018 18.5771C131.018 21.7168 129.946 24.6013 128.161 26.8615C127.621 27.5473 127.012 28.1746 126.349 28.7343C125.67 29.3063 124.93 29.8106 124.147 30.2319C123.324 30.6747 122.448 31.0253 121.533 31.2713Z" fill="url(#paint4_linear_6_290)"/>
<path d="M5.00028 45.8243C4.3737 45.5045 3.65805 45.3446 2.85639 45.3446C2.3496 45.3446 1.91959 45.4553 1.56637 45.6767C1.21315 45.8981 1.03501 46.2395 1.03501 46.7069C1.03501 47.0052 1.16094 47.2573 1.41894 47.4634C1.67387 47.6694 1.95645 47.8293 2.26974 47.937C2.58303 48.0446 2.92704 48.1645 3.30176 48.2968C3.67648 48.4259 4.00205 48.5735 4.27541 48.7335C4.54877 48.8934 4.77914 49.1425 4.96342 49.4807C5.14771 49.819 5.24293 50.228 5.24293 50.7047C5.24293 51.575 4.9665 52.2177 4.41363 52.6297C3.86076 53.0449 3.17275 53.2509 2.35267 53.2509C1.46501 53.2509 0.68793 53.0449 0.0183479 52.6328V51.6611C0.75243 52.0731 1.52337 52.2792 2.3281 52.2792C2.87482 52.2792 3.32633 52.1623 3.68262 51.9286C4.03584 51.6949 4.21398 51.3197 4.21398 50.8031C4.21398 50.474 4.12184 50.1942 3.93448 49.9728C3.75019 49.7483 3.5014 49.5761 3.19118 49.4561C2.88096 49.3362 2.54003 49.204 2.16838 49.0594C1.79673 48.9149 1.44966 48.7796 1.12715 48.6566C0.804646 48.5336 0.537427 48.3029 0.325495 47.9739C0.110492 47.6418 0.00299072 47.242 0.00299072 46.7684C0.00299072 45.9996 0.27328 45.4061 0.81386 44.994C1.35444 44.5788 2.03631 44.3728 2.85639 44.3728C3.69183 44.3728 4.40749 44.5327 5.00028 44.8525V45.8243Z" fill="#0E5B61"/>
<path d="M10.8576 44.5481H11.8896V50.0589C11.8896 50.8 12.0862 51.3536 12.4763 51.7226C12.8694 52.0916 13.3823 52.2761 14.0243 52.2761C14.6724 52.2761 15.1914 52.0916 15.5846 51.7226C15.9777 51.3536 16.1712 50.7969 16.1712 50.0589V44.5481H17.2033V50.0835C17.2033 51.0922 16.9053 51.8733 16.3125 52.4237C15.7197 52.9742 14.9549 53.251 14.0212 53.251C13.0875 53.251 12.3258 52.9742 11.736 52.4237C11.1463 51.8733 10.8545 51.0922 10.8545 50.0835V44.5481H10.8576Z" fill="#0E5B61"/>
<path d="M25.8986 49.8959H24.412V53.0726H23.38V44.5481H25.9784C26.9982 44.5481 27.7906 44.7818 28.3527 45.2492C28.9178 45.7167 29.1973 46.3748 29.1973 47.2235C29.1973 47.9155 29.0131 48.4751 28.6445 48.9057C28.2759 49.3362 27.7476 49.6161 27.0565 49.7421L29.4738 53.0726H28.1899L25.8986 49.8959ZM24.412 45.5199V48.9241H25.9293C26.5866 48.9241 27.0995 48.7827 27.4712 48.5028C27.8428 48.2199 28.0271 47.7955 28.0271 47.2235C28.0271 46.6515 27.8428 46.2241 27.4712 45.9442C27.0995 45.6613 26.5866 45.5229 25.9293 45.5229H24.412V45.5199Z" fill="#0E5B61"/>
<path d="M34.8028 44.5481H37.4013C38.421 44.5481 39.2134 44.7818 39.7755 45.2492C40.3407 45.7167 40.6202 46.3748 40.6202 47.2235C40.6202 48.0907 40.3345 48.7519 39.7602 49.2101C39.1889 49.6683 38.3841 49.899 37.3491 49.899H35.8348V53.0757H34.8028V44.5481ZM35.8348 45.5199V48.9241H37.3521C38.0094 48.9241 38.5224 48.7827 38.894 48.5028C39.2657 48.2199 39.4499 47.7955 39.4499 47.2235C39.4499 46.6515 39.2657 46.2241 38.894 45.9442C38.5224 45.6613 38.0094 45.5229 37.3521 45.5229H35.8348V45.5199Z" fill="#0E5B61"/>
<path d="M48.0009 44.5481H49.0084L52.3962 53.0726H51.186L50.3752 50.9907H46.4191L45.6052 53.0726H44.5732L48.0009 44.5481ZM48.4002 45.9227L46.8 50.022H49.9974L48.4002 45.9227Z" fill="#0E5B61"/>
<path d="M61.881 45.8243C61.2544 45.5045 60.5387 45.3446 59.7371 45.3446C59.2303 45.3446 58.8003 45.4553 58.4471 45.6767C58.0938 45.8981 57.9157 46.2395 57.9157 46.7069C57.9157 47.0052 58.0416 47.2573 58.2996 47.4634C58.5545 47.6694 58.8371 47.8293 59.1504 47.937C59.4637 48.0446 59.8077 48.1645 60.1824 48.2968C60.5572 48.4259 60.8827 48.5735 61.1561 48.7335C61.4294 48.8934 61.6598 49.1425 61.8441 49.4807C62.0284 49.819 62.1236 50.228 62.1236 50.7047C62.1236 51.575 61.8472 52.2177 61.2943 52.6297C60.7414 53.0449 60.0534 53.2509 59.2333 53.2509C58.3457 53.2509 57.5686 53.0449 56.899 52.6328V51.6611C57.6331 52.0731 58.404 52.2792 59.2088 52.2792C59.7555 52.2792 60.207 52.1623 60.5633 51.9286C60.9165 51.6949 61.0947 51.3197 61.0947 50.8031C61.0947 50.474 61.0025 50.1942 60.8152 49.9728C60.6309 49.7483 60.3821 49.5761 60.0719 49.4561C59.7616 49.3362 59.4207 49.204 59.0491 49.0594C58.6774 48.9149 58.3303 48.7796 58.0078 48.6566C57.6853 48.5336 57.4181 48.3029 57.2062 47.9739C56.9912 47.6418 56.8837 47.242 56.8837 46.7684C56.8837 45.9996 57.154 45.4061 57.6945 44.994C58.2351 44.5788 58.917 44.3728 59.7371 44.3728C60.5725 44.3728 61.2882 44.5327 61.881 44.8525V45.8243Z" fill="#0E5B61"/>
<path d="M72.4867 45.8243C71.8602 45.5045 71.1445 45.3446 70.3428 45.3446C69.836 45.3446 69.406 45.4553 69.0528 45.6767C68.6996 45.8981 68.5215 46.2395 68.5215 46.7069C68.5215 47.0052 68.6474 47.2573 68.9054 47.4634C69.1603 47.6694 69.4429 47.8293 69.7562 47.937C70.0695 48.0446 70.4135 48.1645 70.7882 48.2968C71.1629 48.4259 71.4885 48.5735 71.7619 48.7335C72.0352 48.8934 72.2656 49.1425 72.4499 49.4807C72.6342 49.819 72.7294 50.228 72.7294 50.7047C72.7294 51.575 72.4529 52.2177 71.9001 52.6297C71.3472 53.0449 70.6592 53.2509 69.8391 53.2509C68.9515 53.2509 68.1744 53.0449 67.5048 52.6328V51.6611C68.2389 52.0731 69.0098 52.2792 69.8145 52.2792C70.3613 52.2792 70.8128 52.1623 71.1691 51.9286C71.5223 51.6949 71.7004 51.3197 71.7004 50.8031C71.7004 50.474 71.6083 50.1942 71.4209 49.9728C71.2366 49.7483 70.9879 49.5761 70.6776 49.4561C70.3674 49.3362 70.0265 49.204 69.6548 49.0594C69.2832 48.9149 68.9361 48.7796 68.6136 48.6566C68.2911 48.5336 68.0239 48.3029 67.812 47.9739C67.5969 47.6418 67.4894 47.242 67.4894 46.7684C67.4894 45.9996 67.7597 45.4061 68.3003 44.994C68.8409 44.5788 69.5228 44.3728 70.3428 44.3728C71.1783 44.3728 71.8939 44.5327 72.4867 44.8525V45.8243Z" fill="#0E5B61"/>
<path d="M83.888 44.5481H85.1228L87.5707 48.5828L90.0218 44.5481H91.0538L88.0192 49.5115V53.0726H86.9871V49.656L83.888 44.5481Z" fill="#0E5B61"/>
<path d="M102.943 45.5844C103.748 46.3901 104.154 47.4665 104.154 48.8134C104.154 50.1573 103.751 51.2336 102.943 52.0424C102.139 52.8512 101.07 53.254 99.743 53.254C98.4161 53.254 97.3503 52.8512 96.5425 52.0424C95.7377 51.2367 95.3323 50.1604 95.3323 48.8134C95.3323 47.4695 95.7347 46.3932 96.5425 45.5844C97.3472 44.7757 98.4161 44.3728 99.743 44.3728C101.073 44.3728 102.139 44.7757 102.943 45.5844ZM102.12 51.3412C102.695 50.7139 102.983 49.8713 102.983 48.8134C102.983 47.7555 102.695 46.9099 102.12 46.2856C101.546 45.6583 100.753 45.3476 99.746 45.3476C98.7386 45.3476 97.9461 45.6613 97.3718 46.2856C96.7974 46.9129 96.5087 47.7555 96.5087 48.8134C96.5087 49.8713 96.7974 50.717 97.3718 51.3412C97.9461 51.9686 98.7386 52.2792 99.746 52.2792C100.753 52.2792 101.543 51.9655 102.12 51.3412Z" fill="#0E5B61"/>
<path d="M109.544 44.5481H110.576V50.0589C110.576 50.8 110.773 51.3536 111.163 51.7226C111.556 52.0916 112.069 52.2761 112.711 52.2761C113.359 52.2761 113.878 52.0916 114.271 51.7226C114.664 51.3536 114.858 50.7969 114.858 50.0589V44.5481H115.89V50.0835C115.89 51.0922 115.592 51.8733 114.999 52.4237C114.406 52.9742 113.641 53.251 112.708 53.251C111.774 53.251 111.012 52.9742 110.423 52.4237C109.833 51.8733 109.541 51.0922 109.541 50.0835V44.5481H109.544Z" fill="#0E5B61"/>
<path d="M124.585 49.8959H123.098V53.0726H122.066V44.5481H124.665C125.685 44.5481 126.477 44.7818 127.039 45.2492C127.604 45.7167 127.884 46.3748 127.884 47.2235C127.884 47.9155 127.7 48.4751 127.331 48.9057C126.962 49.3362 126.434 49.6161 125.743 49.7421L128.16 53.0726H126.876L124.585 49.8959ZM123.095 45.5199V48.9241H124.613C125.27 48.9241 125.783 48.7827 126.155 48.5028C126.526 48.2199 126.711 47.7955 126.711 47.2235C126.711 46.6515 126.526 46.2241 126.155 45.9442C125.783 45.6613 125.27 45.5229 124.613 45.5229H123.095V45.5199Z" fill="#0E5B61"/>
<path d="M138.02 45.8243C137.393 45.5045 136.677 45.3446 135.876 45.3446C135.369 45.3446 134.939 45.4553 134.586 45.6767C134.233 45.8981 134.054 46.2395 134.054 46.7069C134.054 47.0052 134.18 47.2573 134.438 47.4634C134.693 47.6694 134.976 47.8293 135.289 47.937C135.602 48.0446 135.946 48.1645 136.321 48.2968C136.696 48.4259 137.021 48.5735 137.295 48.7335C137.568 48.8934 137.799 49.1425 137.983 49.4807C138.167 49.819 138.262 50.228 138.262 50.7047C138.262 51.575 137.986 52.2177 137.433 52.6297C136.88 53.0449 136.192 53.2509 135.372 53.2509C134.484 53.2509 133.707 53.0449 133.038 52.6328V51.6611C133.772 52.0731 134.543 52.2792 135.347 52.2792C135.894 52.2792 136.346 52.1623 136.702 51.9286C137.055 51.6949 137.233 51.3197 137.233 50.8031C137.233 50.474 137.141 50.1942 136.954 49.9728C136.77 49.7483 136.521 49.5761 136.211 49.4561C135.9 49.3362 135.559 49.204 135.188 49.0594C134.816 48.9149 134.469 48.7796 134.147 48.6566C133.824 48.5336 133.557 48.3029 133.345 47.9739C133.13 47.6418 133.022 47.242 133.022 46.7684C133.022 45.9996 133.293 45.4061 133.833 44.994C134.374 44.5788 135.056 44.3728 135.876 44.3728C136.711 44.3728 137.427 44.5327 138.02 44.8525V45.8243Z" fill="#0E5B61"/>
<path d="M143.981 44.5481H149.083V45.5199H145.013V48.1922H148.73V49.164H145.013V51.006C145.013 51.3843 145.099 51.6611 145.271 51.8394C145.443 52.0147 145.72 52.1039 146.098 52.1039H149.172V53.0757H145.947C145.235 53.0757 144.728 52.9034 144.43 52.559C144.132 52.2146 143.981 51.698 143.981 51.0091V44.5481Z" fill="#0E5B61"/>
<path d="M154.839 44.5481H155.871V51.006C155.871 51.3843 155.954 51.6611 156.123 51.8394C156.292 52.0147 156.568 52.1039 156.955 52.1039H159.75V53.0757H156.79C156.083 53.0757 155.582 52.9004 155.285 52.5529C154.987 52.2054 154.836 51.6887 154.836 51.0091V44.5481H154.839Z" fill="#0E5B61"/>
<path d="M164.978 44.5481H170.003V45.5199H166.01V48.346H169.65V49.3178H166.01V53.0757H164.978V44.5481Z" fill="#0E5B61"/>
<defs>
<linearGradient id="paint0_linear_6_290" x1="7.90226" y1="25.3345" x2="62.4585" y2="-4.86112" gradientUnits="userSpaceOnUse">
<stop stop-color="#0E5B61"/>
<stop offset="0.9944" stop-color="#0CAB6A"/>
</linearGradient>
<linearGradient id="paint1_linear_6_290" x1="47.2328" y1="25.2985" x2="110.774" y2="-27.7411" gradientUnits="userSpaceOnUse">
<stop stop-color="#0E5B61"/>
<stop offset="0.9944" stop-color="#0CAB6A"/>
</linearGradient>
<linearGradient id="paint2_linear_6_290" x1="87.4761" y1="25.2907" x2="132.222" y2="7.2936" gradientUnits="userSpaceOnUse">
<stop stop-color="#0E5B61"/>
<stop offset="0.9944" stop-color="#0CAB6A"/>
</linearGradient>
<linearGradient id="paint3_linear_6_290" x1="146.291" y1="25.3237" x2="200.613" y2="-4.46429" gradientUnits="userSpaceOnUse">
<stop stop-color="#0E5B61"/>
<stop offset="0.9944" stop-color="#0CAB6A"/>
</linearGradient>
<linearGradient id="paint4_linear_6_290" x1="110.209" y1="25.3345" x2="170.086" y2="-15.3845" gradientUnits="userSpaceOnUse">
<stop stop-color="#0E5B61"/>
<stop offset="0.9944" stop-color="#0CAB6A"/>
</linearGradient>
</defs>
</svg>
