<svg width="50" height="37" viewBox="0 0 50 37" fill="none" xmlns="http://www.w3.org/2000/svg">
<path d="M7.9219 20.6129C7.87051 20.7142 7.81833 20.8147 7.76457 20.9144C7.71159 21.0142 7.65704 21.1131 7.6017 21.2121C7.54635 21.3102 7.49022 21.4076 7.4333 21.505C7.37637 21.6015 7.31866 21.6973 7.25936 21.7923C7.1716 21.934 7.08226 22.0733 6.99055 22.2103C6.89963 22.3472 6.80633 22.481 6.71225 22.6124C6.61817 22.743 6.52171 22.8712 6.42446 22.9963C6.32722 23.1214 6.22839 23.2425 6.12877 23.3604C5.50339 24.0998 4.88987 24.6301 4.32299 24.9571C3.77351 25.2737 3.27226 25.3972 2.84532 25.3378C2.4342 25.2808 2.09344 25.0552 1.84439 24.6729C1.60405 24.3048 1.44829 23.7919 1.39295 23.1428C1.35342 22.6789 1.36765 22.1747 1.42774 21.649C1.48703 21.1329 1.59061 20.5931 1.73134 20.0453C1.87049 19.5046 2.04758 18.9529 2.25552 18.4059C2.46266 17.8621 2.70222 17.3199 2.96945 16.7927C3.06511 16.6035 3.16473 16.4167 3.26751 16.2314C3.37029 16.0462 3.47703 15.8634 3.58692 15.6837C3.69682 15.5032 3.81067 15.3259 3.92768 15.1509C4.04548 14.976 4.16566 14.8042 4.29058 14.6364C4.76574 13.9952 5.24802 13.4664 5.71844 13.0572C6.20072 12.6376 6.67509 12.3408 7.11626 12.1793C7.57244 12.0123 7.99701 11.9893 8.35911 12.1287C8.73545 12.2735 9.04616 12.5933 9.25489 13.1102C9.34818 13.3406 9.41696 13.6002 9.46203 13.8852C9.50788 14.1741 9.52923 14.4892 9.52765 14.8248C9.52528 15.1652 9.49919 15.5261 9.44938 15.9029C9.39878 16.2845 9.32525 16.6811 9.2288 17.0879C9.19954 17.2122 9.16792 17.3373 9.13471 17.4631C9.10151 17.589 9.06593 17.7157 9.02798 17.8431C8.99003 17.9705 8.9505 18.098 8.90939 18.2262C8.86748 18.3545 8.824 18.4835 8.77893 18.6125C8.73229 18.7447 8.68327 18.8777 8.63267 19.0099C8.58207 19.1429 8.5291 19.2759 8.47454 19.4081C8.41999 19.5411 8.36307 19.6732 8.30456 19.8054C8.24605 19.9376 8.18597 20.069 8.1243 20.1996C8.1077 20.2345 8.09109 20.2693 8.07449 20.3041C8.05789 20.339 8.04128 20.3738 8.02389 20.4078C8.00729 20.4427 7.98989 20.4767 7.9725 20.5115C7.95669 20.544 7.93929 20.578 7.9219 20.6129ZM2.25156 16.2449C1.89499 16.9494 1.57321 17.6737 1.29175 18.4004C1.00871 19.1334 0.764406 19.8743 0.568332 20.6049C0.368305 21.3482 0.214925 22.0868 0.118469 22.7992C0.0196411 23.5306 -0.0206806 24.2407 0.0101537 24.9056C0.0536378 25.8476 0.23469 26.6162 0.535917 27.1941C0.852956 27.8028 1.30361 28.2002 1.86495 28.3585C2.45634 28.5255 3.16631 28.4258 3.96168 28.0292C4.79341 27.6152 5.70579 26.8814 6.64663 25.812C6.64979 25.808 6.65295 25.8049 6.65612 25.8009C6.65928 25.7969 6.66244 25.793 6.6656 25.789C6.66876 25.7851 6.67193 25.7811 6.67509 25.7772C6.67825 25.7732 6.68141 25.7692 6.68458 25.7661L10.2194 21.7512L10.2795 21.6831L10.8772 21.0039L13.4839 18.041L10.7531 18.3711C10.7982 18.2334 10.8409 18.0964 10.8828 17.9595C10.9239 17.8225 10.9642 17.6864 11.0022 17.5502C11.0401 17.4149 11.0765 17.2795 11.1113 17.1449C11.1461 17.0104 11.1793 16.8766 11.2101 16.7436C11.3611 16.1064 11.4726 15.4881 11.5429 14.8968C11.6125 14.315 11.6418 13.7633 11.6307 13.248C11.6196 12.7429 11.569 12.2759 11.4789 11.8532C11.3904 11.44 11.2639 11.0711 11.0994 10.7521C10.7507 10.0753 10.2629 9.689 9.69289 9.55285C9.15211 9.42382 8.53542 9.51881 7.88474 9.80536C7.26331 10.0792 6.60551 10.5297 5.94376 11.1352C5.30415 11.7202 4.65347 12.4572 4.01623 13.335C3.8502 13.5638 3.68812 13.7973 3.53079 14.0348C3.37425 14.2707 3.22245 14.5105 3.07539 14.7543C2.92834 14.9966 2.78602 15.2428 2.64846 15.4913C2.51247 15.7407 2.37965 15.9916 2.25156 16.2449Z" fill="url(#paint0_linear_60_249)"/>
<path d="M38.9479 20.4474C38.672 20.9873 38.3629 21.5192 38.0213 22.0393C37.6813 22.5578 37.3098 23.0644 36.9081 23.5544C36.5089 24.042 36.0811 24.5122 35.6257 24.9618C35.1743 25.4083 34.6967 25.8334 34.1955 26.2339C32.3431 27.7158 30.3665 28.7076 28.4311 29.2411C26.6119 29.743 24.8583 29.8325 23.2778 29.5633C21.8049 29.3124 20.4909 28.7511 19.4022 27.9255C18.3854 27.1545 17.5624 26.1508 16.9797 24.9413C16.737 24.4386 16.5449 23.9185 16.3994 23.3874C16.2563 22.8681 16.1575 22.3362 16.0998 21.7979C16.0428 21.2691 16.0246 20.7316 16.0436 20.1902C16.0618 19.6566 16.1164 19.1184 16.2041 18.5793C16.231 18.417 16.2603 18.254 16.2927 18.0917C16.3251 17.9294 16.3607 17.7679 16.3994 17.6056C16.4381 17.4442 16.4793 17.2827 16.5235 17.1212C16.5678 16.9605 16.6152 16.799 16.6658 16.6383C16.7172 16.4737 16.7718 16.309 16.8287 16.1452C16.8864 15.9813 16.9465 15.8175 17.0098 15.6536C17.073 15.4905 17.1394 15.3267 17.209 15.1644C17.2786 15.0021 17.3505 14.8399 17.4264 14.6784C17.4462 14.6356 17.4667 14.5929 17.4865 14.5501C17.5071 14.5074 17.5276 14.4646 17.5482 14.4219C17.5687 14.3791 17.5901 14.3364 17.6114 14.2937C17.6328 14.2509 17.6541 14.2082 17.6755 14.1654C17.7395 14.0396 17.8051 13.9145 17.8731 13.7894C17.9411 13.6643 18.0107 13.5393 18.0818 13.415C18.153 13.2907 18.2265 13.1664 18.3016 13.043C18.3767 12.9195 18.4542 12.796 18.5325 12.6741C18.6503 12.4896 18.7728 12.306 18.9001 12.1239C19.0274 11.9411 19.1587 11.7598 19.2947 11.5801C19.4306 11.3996 19.5722 11.2199 19.7176 11.0418C19.8639 10.8629 20.0141 10.6856 20.1699 10.5099C21.1668 9.37951 22.2753 8.4019 23.4486 7.59369C24.6733 6.74986 25.9881 6.07702 27.3329 5.60919C28.7584 5.11366 30.2345 4.84373 31.6774 4.85323C33.2238 4.86352 34.7426 5.19519 36.1104 5.92107C37.1848 6.49102 38.0861 7.26043 38.7953 8.19767C39.5377 9.17923 40.0611 10.3334 40.3473 11.6134C40.6438 12.9377 40.6817 14.3776 40.454 15.8705C40.2224 17.3919 39.718 18.941 38.9479 20.4474ZM11.1378 17.4584L13.9176 17.0468C13.8718 17.1956 13.8275 17.3452 13.7856 17.4948C13.7429 17.6444 13.7026 17.7948 13.6639 17.9444C13.6251 18.0948 13.588 18.2452 13.5524 18.3964C13.5168 18.5476 13.4836 18.6988 13.452 18.85C13.297 19.5862 13.1855 20.3271 13.1199 21.0641C13.0535 21.8161 13.0337 22.5689 13.0669 23.3161C13.1001 24.0824 13.1879 24.8463 13.335 25.6022C13.4868 26.3811 13.7026 27.1545 13.9888 27.9144C14.66 29.6947 15.6641 31.2494 16.9584 32.527C18.3823 33.9337 20.1683 35.015 22.2429 35.6751C24.542 36.4066 27.1851 36.6179 30.0179 36.1699C33.1337 35.6767 36.4077 34.3975 39.533 32.2199C40.3924 31.6199 41.2123 30.9715 41.9879 30.2797C42.7737 29.5791 43.5114 28.8359 44.1969 28.0577C44.8886 27.2725 45.5243 26.454 46.1022 25.6086C46.6826 24.7592 47.202 23.8869 47.6582 22.9971C48.9287 20.5187 49.6846 17.965 49.9202 15.4771C50.1494 13.0627 49.8822 10.7774 49.1564 8.72961C48.4694 6.79023 47.387 5.10653 45.9615 3.74263C44.6349 2.47293 43.0323 1.50166 41.2028 0.860477C38.9432 0.0681013 36.5515 -0.141668 34.2097 0.0870994C32.0861 0.294494 29.9783 0.865227 27.9947 1.7051C26.162 2.48164 24.4036 3.50199 22.79 4.71233C21.2657 5.85616 19.8378 7.19394 18.5578 8.70349C18.5538 8.70824 18.5491 8.71378 18.5451 8.71853C18.5412 8.72328 18.5364 8.72882 18.5325 8.73436C18.5285 8.7399 18.5238 8.74465 18.5198 8.7494C18.5151 8.75415 18.5112 8.75969 18.5064 8.76444L14.3209 13.7023L14.2568 13.7775L13.633 14.5137L11.1378 17.4584Z" fill="url(#paint1_linear_60_249)"/>
<path d="M5.46228 18.1819C5.43303 18.2397 5.4014 18.2935 5.3682 18.3434C5.33499 18.3933 5.30021 18.4384 5.26463 18.4772C5.22984 18.516 5.19426 18.5484 5.15947 18.5738C5.12469 18.5983 5.09069 18.6157 5.05907 18.6236C5.01637 18.6347 4.98079 18.6284 4.95391 18.607C4.92703 18.5856 4.90806 18.5508 4.89778 18.5033C4.8875 18.4566 4.88513 18.398 4.89304 18.3307C4.90015 18.2635 4.91675 18.1883 4.94284 18.1059C4.94917 18.0854 4.95628 18.0648 4.96419 18.0442C4.97131 18.0236 4.97921 18.0038 4.98791 17.9832C4.99582 17.9635 5.00451 17.9437 5.014 17.9239C5.0227 17.9041 5.03218 17.8851 5.04167 17.8661C5.07013 17.8099 5.10097 17.7568 5.13338 17.7086C5.1658 17.6595 5.1998 17.6152 5.23379 17.5772C5.26858 17.5384 5.30337 17.5059 5.33736 17.4798C5.37136 17.4545 5.40536 17.4363 5.43777 17.4268C5.48047 17.4141 5.51604 17.4188 5.54451 17.4378C5.57218 17.4568 5.59273 17.4909 5.60459 17.5368C5.61645 17.5827 5.61883 17.6405 5.6125 17.7086C5.60618 17.7758 5.59036 17.8534 5.56427 17.9365C5.55795 17.9579 5.55083 17.9785 5.54293 17.9999C5.53502 18.0204 5.52711 18.0418 5.51921 18.0624C5.51051 18.083 5.50181 18.1036 5.49312 18.1234C5.48205 18.1423 5.47177 18.1621 5.46228 18.1819ZM4.48112 17.7109C4.44871 17.7751 4.41708 17.84 4.38704 17.9057C4.35699 17.9714 4.32774 18.0387 4.29928 18.1059C4.27161 18.1732 4.24473 18.2421 4.21863 18.311C4.19333 18.3798 4.16883 18.4495 4.14669 18.5199C4.1206 18.6007 4.09688 18.6806 4.07553 18.7598C4.05419 18.8389 4.036 18.9165 4.02019 18.9925C4.00438 19.0685 3.99094 19.1437 3.98066 19.2157C3.97038 19.2886 3.96247 19.359 3.95694 19.4279C3.95536 19.4366 3.95378 19.4453 3.9522 19.4532C3.95061 19.4611 3.94982 19.4698 3.94903 19.477C3.94824 19.4849 3.94824 19.492 3.94824 19.4999C3.94824 19.507 3.94824 19.5142 3.94903 19.5205L3.9514 19.549C3.95061 19.5822 3.95061 19.6155 3.9514 19.6471C3.9522 19.6788 3.95378 19.7105 3.95615 19.7406C3.95852 19.7706 3.96168 19.7999 3.96564 19.8292C3.96959 19.8577 3.97433 19.8854 3.97908 19.9123L4.09688 21.429C4.09846 21.444 4.10083 21.4567 4.10479 21.4678C4.10874 21.4789 4.11348 21.4884 4.11902 21.4955C4.12534 21.5026 4.13246 21.5082 4.14036 21.5113C4.14827 21.5145 4.15776 21.5153 4.16724 21.5137H4.16883C4.1791 21.5121 4.18938 21.5082 4.20045 21.5018C4.21152 21.4955 4.22338 21.4868 4.23445 21.4765C4.24631 21.4662 4.25817 21.4535 4.27003 21.4393C4.28188 21.425 4.29374 21.4092 4.30481 21.391L5.53423 19.4991C5.55399 19.4714 5.57376 19.4429 5.59353 19.4144C5.61329 19.3859 5.63227 19.3566 5.65203 19.3266C5.67101 19.2973 5.68998 19.2672 5.70896 19.2363C5.72793 19.2062 5.74612 19.1754 5.7643 19.1437L5.79988 19.0891C5.80304 19.0843 5.8062 19.0796 5.80857 19.0748C5.81174 19.0701 5.81411 19.0645 5.81727 19.0598C5.82043 19.055 5.82281 19.0495 5.82597 19.0448C5.82913 19.0392 5.8315 19.0345 5.83387 19.0289C5.83546 19.025 5.83783 19.021 5.83941 19.0178C5.84099 19.0147 5.84336 19.0099 5.84494 19.0068C5.84652 19.0028 5.84811 18.9988 5.85048 18.9957C5.85206 18.9917 5.85364 18.9878 5.85522 18.9838C5.86234 18.9711 5.86945 18.9585 5.87578 18.945C5.8821 18.9316 5.88922 18.9189 5.89633 18.9062C5.90345 18.8936 5.90977 18.8801 5.91689 18.8674C5.92401 18.8548 5.93033 18.8413 5.93666 18.8279C5.97302 18.7566 6.00781 18.6838 6.04102 18.611C6.07422 18.5381 6.10585 18.4645 6.13589 18.3901C6.16594 18.3165 6.1944 18.2421 6.22049 18.1677C6.24658 18.0933 6.27109 18.0197 6.29402 17.946C6.38494 17.6484 6.43949 17.3761 6.45847 17.1378C6.47823 16.9019 6.46321 16.7009 6.41814 16.5434C6.37387 16.3882 6.29876 16.2758 6.19756 16.2156C6.09715 16.1563 5.97065 16.1476 5.82122 16.1974C5.71054 16.2346 5.59432 16.3011 5.4773 16.3922C5.36029 16.4824 5.24249 16.5964 5.12627 16.7294C5.01005 16.8616 4.8962 17.0128 4.78709 17.1782C4.68036 17.3436 4.57679 17.5225 4.48112 17.7109Z" fill="url(#paint2_linear_60_249)"/>
<path d="M26.6683 15.6085C26.6113 15.7201 26.5418 15.8262 26.4619 15.9227C26.3821 16.0193 26.2927 16.1072 26.1971 16.1832C26.1014 16.2584 25.9994 16.3217 25.895 16.3692C25.7907 16.4167 25.6832 16.4483 25.5764 16.4618C25.4404 16.4792 25.3179 16.4658 25.2127 16.4254C25.1084 16.3858 25.0206 16.3201 24.9542 16.2346C24.8878 16.1491 24.8427 16.0438 24.8214 15.9227C24.8 15.8024 24.8032 15.6663 24.834 15.5206C24.8404 15.4889 24.8483 15.4573 24.8578 15.4256C24.8664 15.3939 24.8767 15.3631 24.8878 15.3322C24.8989 15.3013 24.9107 15.2705 24.9242 15.2404C24.9376 15.2103 24.9518 15.1802 24.9669 15.1501C25.0214 15.0441 25.087 14.9427 25.1629 14.8493C25.238 14.7559 25.3234 14.6704 25.4143 14.596C25.5053 14.5208 25.6033 14.4575 25.7045 14.4076C25.8057 14.3578 25.9116 14.3221 26.0168 14.3031C26.1528 14.2802 26.2769 14.2873 26.3852 14.3214C26.4943 14.3554 26.5868 14.4156 26.6588 14.4987C26.7315 14.5818 26.7829 14.6871 26.809 14.809C26.8351 14.9317 26.8351 15.0726 26.8058 15.2246C26.7995 15.2578 26.7916 15.2903 26.7829 15.3227C26.7742 15.3552 26.7639 15.3876 26.7521 15.4201C26.741 15.4525 26.7284 15.4842 26.7149 15.5159C26.6983 15.5459 26.6841 15.5776 26.6683 15.6085ZM22.9832 15.0124C22.9334 15.1098 22.8875 15.2079 22.844 15.3069C22.8006 15.4066 22.7602 15.5071 22.7231 15.6085C22.6859 15.7098 22.6519 15.8127 22.6211 15.9156C22.5902 16.0193 22.5634 16.123 22.5396 16.2283C22.508 16.37 22.4835 16.5101 22.4661 16.6486C22.4487 16.7871 22.4384 16.9249 22.4361 17.0587C22.4337 17.1932 22.4377 17.3254 22.4503 17.4544C22.4622 17.5835 22.4827 17.7101 22.5096 17.832C22.5088 17.8479 22.5088 17.8629 22.5104 17.8779C22.5112 17.893 22.5136 17.9072 22.5159 17.9215C22.5183 17.9357 22.5223 17.9492 22.5262 17.9626C22.5302 17.9761 22.5357 17.9888 22.5412 18.0006L22.5665 18.0529C22.5855 18.1138 22.6061 18.1732 22.629 18.231C22.6519 18.2888 22.6764 18.3458 22.7025 18.4012C22.7294 18.4566 22.7579 18.5104 22.7879 18.5627C22.8187 18.6149 22.8512 18.6664 22.8859 18.7154L24.2687 21.5936C24.283 21.6229 24.2996 21.649 24.3201 21.6712C24.3399 21.6934 24.3628 21.7132 24.3881 21.7282C24.4134 21.744 24.4403 21.7551 24.4696 21.7638C24.4988 21.7717 24.5296 21.7757 24.5621 21.7757L24.5668 21.7749C24.6 21.7733 24.6332 21.7686 24.6664 21.7591C24.6996 21.7496 24.7328 21.7361 24.7652 21.7187C24.7977 21.7013 24.8285 21.6807 24.8585 21.6562C24.8886 21.6316 24.917 21.6039 24.9431 21.5731L27.855 18.1431C27.904 18.0925 27.953 18.0402 28.0005 17.988C28.0487 17.9349 28.0953 17.8819 28.1412 17.8273C28.1871 17.7727 28.2329 17.7172 28.2772 17.661C28.3215 17.6048 28.3649 17.5478 28.4069 17.4901L28.493 17.3872C28.5025 17.3761 28.512 17.365 28.5207 17.3539C28.5294 17.3428 28.5381 17.331 28.5452 17.3191C28.5531 17.3072 28.5602 17.2953 28.5673 17.2835C28.5745 17.2716 28.5808 17.2589 28.5871 17.247C28.5895 17.2423 28.5919 17.2375 28.5942 17.2328C28.5966 17.228 28.599 17.2233 28.6013 17.2186C28.6037 17.2138 28.6061 17.2091 28.6077 17.2043C28.61 17.1996 28.6116 17.1948 28.614 17.1901C28.6409 17.1481 28.6678 17.1061 28.6938 17.0634C28.7199 17.0207 28.7452 16.9779 28.7697 16.9352C28.7943 16.8924 28.8188 16.8489 28.8425 16.8053C28.8662 16.7618 28.8891 16.7183 28.9113 16.6747C28.9706 16.5584 29.0259 16.4404 29.0757 16.3217C29.1263 16.2029 29.1722 16.0842 29.2125 15.9647C29.2536 15.8452 29.29 15.7256 29.3208 15.6061C29.3516 15.4866 29.3777 15.367 29.3991 15.2491C29.4979 14.6942 29.4805 14.1868 29.3667 13.7482C29.2544 13.3153 29.048 12.9511 28.7682 12.6709C28.4938 12.3962 28.1491 12.2039 27.753 12.1081C27.3648 12.0139 26.9276 12.0123 26.4564 12.1152C26.0951 12.1944 25.7393 12.3297 25.3985 12.5102C25.0617 12.6883 24.7392 12.9108 24.4395 13.1664C24.1422 13.4197 23.8663 13.7071 23.6204 14.0182C23.3777 14.3277 23.1619 14.6617 22.9832 15.0124Z" fill="url(#paint3_linear_60_249)"/>
<defs>
<linearGradient id="paint0_linear_60_249" x1="3.34896" y1="22.4367" x2="28.3398" y2="11.0231" gradientUnits="userSpaceOnUse">
<stop stop-color="#0E5B61"/>
<stop offset="0.9944" stop-color="#0CAB6A"/>
</linearGradient>
<linearGradient id="paint1_linear_60_249" x1="20.7899" y1="24.8727" x2="80.0486" y2="-15.7092" gradientUnits="userSpaceOnUse">
<stop stop-color="#0E5B61"/>
<stop offset="0.9944" stop-color="#0CAB6A"/>
</linearGradient>
<linearGradient id="paint2_linear_60_249" x1="4.57382" y1="19.82" x2="9.74408" y2="18.2583" gradientUnits="userSpaceOnUse">
<stop stop-color="#0E5B61"/>
<stop offset="0.9944" stop-color="#0CAB6A"/>
</linearGradient>
<linearGradient id="paint3_linear_60_249" x1="24.181" y1="18.6911" x2="37.1451" y2="12.6887" gradientUnits="userSpaceOnUse">
<stop stop-color="#0E5B61"/>
<stop offset="0.9944" stop-color="#0CAB6A"/>
</linearGradient>
</defs>
</svg>
