<svg width="24" height="24" viewBox="0 0 24 24" fill="none" xmlns="http://www.w3.org/2000/svg">
<path d="M8 13V12H7H3.5C2.67157 12 2 12.6716 2 13.5V20.5C2 21.3284 2.67157 22 3.5 22H7H8V21V13Z" stroke="#C2C9C6" stroke-width="2"/>
<path d="M15 22H16V21V3.5C16 2.67157 15.3284 2 14.5 2H9.5C8.67157 2 8 2.67157 8 3.5V21V22H9H15Z" stroke="#C2C9C6" stroke-width="2"/>
<path d="M17 8H16V9V21V22H17H20.5C21.3284 22 22 21.3284 22 20.5V9.5C22 8.67157 21.3284 8 20.5 8H17Z" stroke="#C2C9C6" stroke-width="2"/>
</svg>
