<svg width="24" height="24" viewBox="0 0 24 24" fill="none" xmlns="http://www.w3.org/2000/svg">
<path d="M3.45374 15.7015L16.5422 2.37139L22.5422 12.7637L4.95374 18.2996L3.45374 15.7015Z" stroke="#C2C9C6" stroke-width="2" stroke-linecap="round" stroke-linejoin="round"/>
<path d="M13.8016 16.4244C13.9011 16.8068 13.9242 17.2049 13.8698 17.5962C13.8153 17.9875 13.6843 18.3642 13.4843 18.7049C13.2843 19.0456 13.0191 19.3435 12.7039 19.5817C12.3887 19.8199 12.0297 19.9936 11.6474 20.0931C11.265 20.1925 10.8668 20.2157 10.4755 20.1612C10.0843 20.1068 9.70752 19.9758 9.36686 19.7757C9.02619 19.5757 8.72826 19.3105 8.49008 18.9953C8.2519 18.6801 8.07813 18.3211 7.9787 17.9388" stroke="#C2C9C6" stroke-width="2" stroke-linecap="round" stroke-linejoin="round"/>
</svg>
