<svg width="24" height="24" viewBox="0 0 24 24" fill="none" xmlns="http://www.w3.org/2000/svg">
<path d="M5.70581 19.0981L6.70581 20.8301C6.97103 21.2895 7.40786 21.6247 7.92022 21.762C8.43258 21.8993 8.97849 21.8274 9.43786 21.5622L21.5622 14.5622C22.0216 14.297 22.3568 13.8601 22.4941 13.3478C22.6314 12.8354 22.5595 12.2895 22.2943 11.8301L21.2943 10.0981M2.70581 13.9019L1.70581 12.1699C1.44059 11.7105 1.36872 11.1646 1.50601 10.6522C1.6433 10.1399 1.97849 9.70304 2.43786 9.43782L14.5622 2.43782C15.0216 2.17261 15.5675 2.10074 16.0799 2.23802C16.5922 2.37531 17.0291 2.7105 17.2943 3.16987L18.2943 4.90192L2.70581 13.9019Z" stroke="#C2C9C6" stroke-width="2" stroke-linecap="round" stroke-linejoin="round"/>
<path d="M21.2942 10.0981C20.6052 10.4959 19.7863 10.6037 19.0178 10.3978C18.2492 10.1918 17.594 9.68905 17.1962 9C16.7983 8.31095 16.6905 7.49208 16.8965 6.72354C17.1024 5.955 17.6052 5.29975 18.2942 4.90192" stroke="#C2C9C6" stroke-width="2" stroke-linecap="round" stroke-linejoin="round"/>
<path d="M5.70581 19.0981C6.39486 18.7003 6.89766 18.045 7.10359 17.2765C7.30952 16.5079 7.20171 15.6891 6.80389 15C6.40606 14.3109 5.75081 13.8082 4.98227 13.6022C4.21373 13.3963 3.39486 13.5041 2.70581 13.9019" stroke="#C2C9C6" stroke-width="2" stroke-linecap="round" stroke-linejoin="round"/>
<path d="M9.36609 5.43782L10.3661 7.16987" stroke="#C2C9C6" stroke-width="2" stroke-linecap="round" stroke-linejoin="round"/>
<path d="M15.3661 15.8301L16.3661 17.5622" stroke="#C2C9C6" stroke-width="2" stroke-linecap="round" stroke-linejoin="round"/>
<path d="M12.3661 10.634L13.3661 12.366" stroke="#C2C9C6" stroke-width="2" stroke-linecap="round" stroke-linejoin="round"/>
</svg>
